<svg width="1683" height="2293" viewBox="0 0 1683 2293" fill="none" xmlns="http://www.w3.org/2000/svg">
<path d="M601.77 1693.1C722.328 1697.38 1247.91 1694.6 1333.28 1689.25V1689.25C1368.27 1687.01 1382.58 1685.89 1390.37 1684.55C1390.78 1684.48 1391.12 1684.41 1391.4 1684.36C1391.67 1684.18 1391.99 1683.97 1392.37 1683.72C1392.48 1683.62 1392.65 1683.47 1392.88 1683.26C1393.67 1682.51 1394.81 1681.32 1396.19 1679.69C1398.98 1676.37 1401.8 1672.32 1404.03 1668.36C1429.49 1622.22 1478.16 1487.61 1524.49 1326.83L1524.49 1326.82L1524.5 1326.8C1603.48 1053.14 1627.44 908.702 1627.44 718.32C1627.44 488.201 1588.08 369.487 1496.37 270.521C1403.31 171.078 1278.49 106.128 1103.12 72.5C1030.18 58.5357 868.769 50.6195 798.834 57.5264L798.789 57.5303L798.745 57.5352L793.925 58.0176C590.303 79.0287 436.421 173.426 372.222 298.482C346.904 348.089 325.088 430.117 320.268 499.532L320.051 502.828C319.678 509.148 319.232 515.162 318.817 520.604C318.635 523.003 318.462 525.246 318.301 527.38C412.406 536.695 510.633 582.839 551.165 702.658L551.235 702.865C577.357 781.108 585.916 882.812 573.627 966.041L573.611 966.142L573.597 966.243L572.826 971.261C568.957 996.156 564.782 1018.16 560.459 1035.64C558.173 1044.89 555.598 1053.89 552.65 1061.81C550.549 1067.46 545.514 1080.6 535.301 1091.3L533.963 1092.7L532.529 1094.01L532.052 1094.44C526.484 1099.34 501.412 1118.82 469.621 1103.19C456.855 1096.91 449.825 1087.52 446.542 1082.26C443.1 1076.75 441.238 1071.71 440.263 1068.71C437.052 1058.85 436.19 1047.57 435.707 1040.73C434.494 1023.54 433.792 994.305 433.011 948.35L433.01 948.348C431.05 832.795 426.696 800.713 412.734 756.763C388.449 682.287 343.773 644.907 290.014 636.564C286.836 636.087 283.623 635.729 280.381 635.49C279.066 635.445 277.737 635.368 276.398 635.258C208.626 632.317 129.067 680.576 85.8779 773.641L85.8545 773.689L85.832 773.738L85.2246 775.051C33.822 886.764 45.7115 1056.42 138.818 1266.41L138.819 1266.41C189.844 1381.51 256.703 1478.98 344.209 1565.85C373.356 1594.79 408.812 1624.31 441.325 1647.62C457.549 1659.25 472.476 1668.93 485.024 1676.08C496.939 1682.86 504.424 1686.03 507.802 1687.14C508.519 1687.24 510.361 1687.5 513.755 1687.86C519.34 1688.46 526.936 1689.12 536.107 1689.78C554.392 1691.1 577.762 1692.33 601.581 1693.1L601.675 1693.1L601.77 1693.1Z" fill="#1A143D" stroke="#1A143D" stroke-width="110"/>
<path d="M872.533 2108.5C1052.99 2110.07 1243.88 2105.1 1344.05 2093.19L1344.11 2093.18C1354.6 2091.95 1362.41 2090.64 1368.29 2089.29C1372.17 2088.4 1374.78 2087.58 1376.46 2086.96C1379.72 2078.05 1383.91 2060.89 1387.72 2035.75C1391.78 2008.91 1394.82 1977.21 1396.47 1945.51C1398.13 1913.77 1398.35 1883.04 1397.03 1858.11C1396.4 1846.22 1395.45 1836.27 1394.3 1828.51C1379.98 1829.14 1361.81 1830.31 1342.91 1831.9L1342.7 1831.92L1333.22 1832.67C1137.54 1848.06 945.841 1853.07 775.804 1846.88L767.593 1846.57C661.605 1842.48 527.755 1834.73 473.234 1829.64C472.006 1844.87 471.331 1877.43 471.729 1914.89C472.16 1955.39 473.757 1994.6 475.981 2014.04L476.198 2015.86C481.573 2057.91 486.339 2078.07 490.652 2088.02C490.659 2088.04 490.665 2088.05 490.672 2088.07C511.821 2092.85 559.039 2097.76 626.908 2101.5C696.633 2105.33 782.769 2107.72 872.533 2108.5Z" fill="#1A143D" stroke="#1A143D" stroke-width="110"/>
<mask id="path-3-inside-1_2043_3" fill="white">
<path d="M465.48 2190.96C465.48 2203.9 477.729 2229.79 488.792 2241.17C517.241 2270.98 593.103 2282.75 797.774 2290.21C994.542 2297.27 1234.38 2286.68 1309.06 2267.45C1349.36 2257.25 1365.16 2247.84 1378.2 2225.09C1391.64 2201.94 1394.01 2183.5 1383.34 2183.5C1379.39 2183.5 1355.68 2186.25 1330.79 2189C1224.11 2202.33 1147.06 2205.08 913.939 2205.08C676.078 2204.69 566.63 2199.59 492.348 2185.86L465.48 2180.76V2190.96Z"/>
</mask>
<path d="M465.48 2190.96C465.48 2203.9 477.729 2229.79 488.792 2241.17C517.241 2270.98 593.103 2282.75 797.774 2290.21C994.542 2297.27 1234.38 2286.68 1309.06 2267.45C1349.36 2257.25 1365.16 2247.84 1378.2 2225.09C1391.64 2201.94 1394.01 2183.5 1383.34 2183.5C1379.39 2183.5 1355.68 2186.25 1330.79 2189C1224.11 2202.33 1147.06 2205.08 913.939 2205.08C676.078 2204.69 566.63 2199.59 492.348 2185.86L465.48 2180.76V2190.96Z" fill="#1A143D"/>
<path d="M488.792 2241.17L567.651 2164.48L568.015 2164.85L568.375 2165.23L488.792 2241.17ZM797.774 2290.21L793.829 2400.13L793.8 2400.13L793.771 2400.13L797.774 2290.21ZM1309.06 2267.45L1281.64 2160.93L1281.85 2160.87L1282.07 2160.82L1309.06 2267.45ZM1378.2 2225.09L1282.76 2170.39L1282.91 2170.13L1283.07 2169.87L1378.2 2225.09ZM1330.79 2189L1317.14 2079.85L1317.93 2079.75L1318.73 2079.66L1330.79 2189ZM913.939 2205.08V2315.08H913.848L913.757 2315.08L913.939 2205.08ZM492.348 2185.86L472.355 2294.03L472.095 2293.98L471.836 2293.93L492.348 2185.86ZM465.48 2180.76H355.48V2047.92L485.993 2072.69L465.48 2180.76ZM465.48 2190.96H575.48C575.48 2184.31 574.736 2179.35 574.268 2176.77C573.764 2173.98 573.234 2172.08 572.97 2171.2C572.477 2169.55 572.265 2169.27 572.645 2170.09C572.983 2170.81 573.255 2171.24 573.159 2171.09C573.081 2170.97 572.709 2170.39 571.984 2169.44C571.304 2168.56 569.885 2166.78 567.651 2164.48L488.792 2241.17L409.933 2317.86C392.548 2299.98 380.513 2278.59 373.33 2263.22C367.353 2250.43 355.48 2222.53 355.48 2190.96H465.48ZM488.792 2241.17L568.375 2165.23C555.341 2151.57 548.286 2158.14 594.367 2165.42C635.269 2171.88 699.491 2176.55 801.777 2180.28L797.774 2290.21L793.771 2400.13C691.386 2396.4 615.342 2391.46 560.033 2382.73C509.903 2374.8 450.692 2360.58 409.21 2317.11L488.792 2241.17ZM797.774 2290.21L801.719 2180.28C896.932 2183.69 1003.13 2182.84 1094.32 2178.79C1189.52 2174.57 1257.03 2167.26 1281.64 2160.93L1309.06 2267.45L1336.48 2373.98C1286.41 2386.87 1196.66 2394.47 1104.08 2398.58C1007.49 2402.87 895.385 2403.78 793.829 2400.13L797.774 2290.21ZM1309.06 2267.45L1282.07 2160.82C1290.17 2158.76 1294.85 2157.29 1297.45 2156.35C1299.94 2155.44 1299.1 2155.53 1296.6 2157.05C1295.3 2157.84 1293.69 2158.94 1291.93 2160.37C1290.16 2161.8 1288.5 2163.36 1287.02 2164.96C1284 2168.2 1282.66 2170.57 1282.76 2170.39L1378.2 2225.09L1473.64 2279.78C1459.69 2304.13 1440.36 2327.07 1411.11 2344.9C1385.89 2360.27 1358.67 2368.37 1336.04 2374.09L1309.06 2267.45ZM1378.2 2225.09L1283.07 2169.87C1286.3 2164.3 1282.32 2168.65 1280.66 2181.96C1280.02 2187.06 1277.35 2210.14 1290.97 2236.8C1298.72 2251.96 1311.61 2267.72 1330.78 2279.05C1349.67 2290.21 1368.62 2293.5 1383.34 2293.5V2183.5V2073.5C1400.72 2073.5 1421.93 2077.38 1442.68 2089.63C1463.71 2102.06 1478.06 2119.44 1486.88 2136.69C1502.64 2167.53 1500.53 2196.67 1498.96 2209.27C1495.42 2237.59 1483.54 2262.73 1473.34 2280.31L1378.2 2225.09ZM1383.34 2183.5V2293.5C1385.85 2293.5 1387.68 2293.41 1388.12 2293.38C1388.49 2293.37 1388.76 2293.35 1388.91 2293.34C1389.07 2293.33 1389.16 2293.32 1389.18 2293.32C1389.19 2293.32 1389.05 2293.33 1388.71 2293.36C1388.37 2293.39 1387.92 2293.43 1387.35 2293.48C1384.91 2293.72 1381.38 2294.08 1376.73 2294.58C1367.31 2295.6 1355.79 2296.91 1342.85 2298.33L1330.79 2189L1318.73 2079.66C1330.68 2078.34 1343.46 2076.9 1353.1 2075.86C1357.98 2075.33 1362.67 2074.84 1366.58 2074.47C1368.51 2074.28 1370.66 2074.09 1372.76 2073.93C1373.93 2073.85 1378.35 2073.5 1383.34 2073.5V2183.5ZM1330.79 2189L1344.43 2298.15C1230.39 2312.4 1147.4 2315.08 913.939 2315.08V2205.08V2095.08C1146.72 2095.08 1217.82 2092.26 1317.14 2079.85L1330.79 2189ZM913.939 2205.08L913.757 2315.08C677.837 2314.69 558.176 2309.89 472.355 2294.03L492.348 2185.86L512.342 2077.69C575.085 2089.29 674.319 2094.68 914.12 2095.08L913.939 2205.08ZM492.348 2185.86L471.836 2293.93L444.968 2288.83L465.48 2180.76L485.993 2072.69L512.861 2077.79L492.348 2185.86ZM465.48 2180.76H575.48V2190.96H465.48H355.48V2180.76H465.48Z" fill="#1A143D" mask="url(#path-3-inside-1_2043_3)"/>
</svg>
