<svg width="1691" height="2301" viewBox="0 0 1691 2301" fill="none" xmlns="http://www.w3.org/2000/svg">
<g filter="url(#filter0_d_2043_3)">
<path d="M605.77 1693.1C726.328 1697.38 1251.91 1694.6 1337.28 1689.25V1689.25C1372.27 1687.01 1386.58 1685.89 1394.37 1684.55C1394.78 1684.48 1395.12 1684.41 1395.4 1684.36C1395.67 1684.18 1395.99 1683.97 1396.37 1683.72C1396.48 1683.62 1396.65 1683.47 1396.88 1683.26C1397.67 1682.51 1398.81 1681.32 1400.19 1679.69C1402.98 1676.37 1405.8 1672.32 1408.03 1668.36C1433.49 1622.22 1482.16 1487.61 1528.49 1326.83L1528.49 1326.82L1528.5 1326.8C1607.48 1053.14 1631.44 908.702 1631.44 718.32C1631.44 488.201 1592.08 369.487 1500.37 270.521C1407.31 171.078 1282.49 106.128 1107.12 72.5C1034.18 58.5357 872.769 50.6195 802.834 57.5264L802.789 57.5303L802.745 57.5352L797.925 58.0176C594.303 79.0287 440.421 173.426 376.222 298.482C350.904 348.089 329.088 430.117 324.268 499.532L324.051 502.828C323.678 509.148 323.232 515.162 322.817 520.604C322.635 523.003 322.462 525.246 322.301 527.38C416.406 536.695 514.633 582.839 555.165 702.658L555.235 702.865C581.357 781.108 589.916 882.812 577.627 966.041L577.611 966.142L577.597 966.243L576.826 971.261C572.957 996.156 568.782 1018.16 564.459 1035.64C562.173 1044.89 559.598 1053.89 556.65 1061.81C554.549 1067.46 549.514 1080.6 539.301 1091.3L537.963 1092.7L536.529 1094.01L536.052 1094.44C530.484 1099.34 505.412 1118.82 473.621 1103.19C460.855 1096.91 453.825 1087.52 450.542 1082.26C447.1 1076.75 445.238 1071.71 444.263 1068.71C441.052 1058.85 440.19 1047.57 439.707 1040.73C438.494 1023.54 437.792 994.305 437.011 948.35L437.01 948.348C435.05 832.795 430.696 800.713 416.734 756.763C392.449 682.287 347.773 644.907 294.014 636.564C290.836 636.087 287.623 635.729 284.381 635.49C283.066 635.445 281.737 635.368 280.398 635.258C212.626 632.317 133.067 680.576 89.8779 773.641L89.8545 773.689L89.832 773.738L89.2246 775.051C37.822 886.764 49.7115 1056.42 142.818 1266.41L142.819 1266.41C193.844 1381.51 260.703 1478.98 348.209 1565.85C377.356 1594.79 412.812 1624.31 445.325 1647.62C461.549 1659.25 476.476 1668.93 489.024 1676.08C500.939 1682.86 508.424 1686.03 511.802 1687.14C512.519 1687.24 514.361 1687.5 517.755 1687.86C523.34 1688.46 530.936 1689.12 540.107 1689.78C558.392 1691.1 581.762 1692.33 605.581 1693.1L605.675 1693.1L605.77 1693.1Z" fill="#F0F4F9" stroke="#F0F4F9" stroke-width="110"/>
<path d="M876.533 2108.5C1056.99 2110.07 1247.88 2105.1 1348.05 2093.19L1348.11 2093.18C1358.6 2091.95 1366.41 2090.64 1372.29 2089.29C1376.17 2088.4 1378.78 2087.58 1380.46 2086.96C1383.72 2078.05 1387.91 2060.89 1391.72 2035.75C1395.78 2008.91 1398.82 1977.21 1400.47 1945.51C1402.13 1913.77 1402.35 1883.04 1401.03 1858.11C1400.4 1846.22 1399.45 1836.27 1398.3 1828.51C1383.98 1829.14 1365.81 1830.31 1346.91 1831.9L1346.7 1831.92L1337.22 1832.67C1141.54 1848.06 949.841 1853.07 779.804 1846.88L771.593 1846.57C665.605 1842.48 531.755 1834.73 477.234 1829.64C476.006 1844.87 475.331 1877.43 475.729 1914.89C476.16 1955.39 477.757 1994.6 479.981 2014.04L480.198 2015.86C485.573 2057.91 490.339 2078.07 494.652 2088.02C494.659 2088.04 494.665 2088.05 494.672 2088.07C515.821 2092.85 563.039 2097.76 630.908 2101.5C700.633 2105.33 786.769 2107.72 876.533 2108.5Z" fill="#F0F4F9" stroke="#F0F4F9" stroke-width="110"/>
<mask id="path-3-inside-1_2043_3" fill="white">
<path d="M469.48 2190.96C469.48 2203.9 481.729 2229.79 492.792 2241.17C521.241 2270.98 597.103 2282.75 801.774 2290.21C998.542 2297.27 1238.38 2286.68 1313.06 2267.45C1353.36 2257.25 1369.16 2247.84 1382.2 2225.09C1395.64 2201.94 1398.01 2183.5 1387.34 2183.5C1383.39 2183.5 1359.68 2186.25 1334.79 2189C1228.11 2202.33 1151.06 2205.08 917.939 2205.08C680.078 2204.69 570.63 2199.59 496.348 2185.86L469.48 2180.76V2190.96Z"/>
</mask>
<path d="M469.48 2190.96C469.48 2203.9 481.729 2229.79 492.792 2241.17C521.241 2270.98 597.103 2282.75 801.774 2290.21C998.542 2297.27 1238.38 2286.68 1313.06 2267.45C1353.36 2257.25 1369.16 2247.84 1382.2 2225.09C1395.64 2201.94 1398.01 2183.5 1387.34 2183.5C1383.39 2183.5 1359.68 2186.25 1334.79 2189C1228.11 2202.33 1151.06 2205.08 917.939 2205.08C680.078 2204.69 570.63 2199.59 496.348 2185.86L469.48 2180.76V2190.96Z" fill="#F0F4F9"/>
<path d="M492.792 2241.17L571.651 2164.48L572.015 2164.85L572.375 2165.23L492.792 2241.17ZM801.774 2290.21L797.829 2400.13L797.8 2400.13L797.771 2400.13L801.774 2290.21ZM1313.06 2267.45L1285.64 2160.93L1285.85 2160.87L1286.07 2160.82L1313.06 2267.45ZM1382.2 2225.09L1286.76 2170.39L1286.91 2170.13L1287.07 2169.87L1382.2 2225.09ZM1334.79 2189L1321.14 2079.85L1321.93 2079.75L1322.73 2079.66L1334.79 2189ZM917.939 2205.08V2315.08H917.848L917.757 2315.08L917.939 2205.08ZM496.348 2185.86L476.355 2294.03L476.095 2293.98L475.836 2293.93L496.348 2185.86ZM469.48 2180.76H359.48V2047.92L489.993 2072.69L469.48 2180.76ZM469.48 2190.96H579.48C579.48 2184.31 578.736 2179.35 578.268 2176.77C577.764 2173.98 577.234 2172.08 576.97 2171.2C576.477 2169.55 576.265 2169.27 576.645 2170.09C576.983 2170.81 577.255 2171.24 577.159 2171.09C577.081 2170.97 576.709 2170.39 575.984 2169.44C575.304 2168.56 573.885 2166.78 571.651 2164.48L492.792 2241.17L413.933 2317.86C396.548 2299.98 384.513 2278.59 377.33 2263.22C371.353 2250.43 359.48 2222.53 359.48 2190.96H469.48ZM492.792 2241.17L572.375 2165.23C559.341 2151.57 552.286 2158.14 598.367 2165.42C639.269 2171.88 703.491 2176.55 805.777 2180.28L801.774 2290.21L797.771 2400.13C695.386 2396.4 619.342 2391.46 564.033 2382.73C513.903 2374.8 454.692 2360.58 413.21 2317.11L492.792 2241.17ZM801.774 2290.21L805.719 2180.28C900.932 2183.69 1007.13 2182.84 1098.32 2178.79C1193.52 2174.57 1261.03 2167.26 1285.64 2160.93L1313.06 2267.45L1340.48 2373.98C1290.41 2386.87 1200.66 2394.47 1108.08 2398.58C1011.49 2402.87 899.385 2403.78 797.829 2400.13L801.774 2290.21ZM1313.06 2267.45L1286.07 2160.82C1294.17 2158.76 1298.85 2157.29 1301.45 2156.35C1303.94 2155.44 1303.1 2155.53 1300.6 2157.05C1299.3 2157.84 1297.69 2158.94 1295.93 2160.37C1294.16 2161.8 1292.5 2163.36 1291.02 2164.96C1288 2168.2 1286.66 2170.57 1286.76 2170.39L1382.2 2225.09L1477.64 2279.78C1463.69 2304.13 1444.36 2327.07 1415.11 2344.9C1389.89 2360.27 1362.67 2368.37 1340.04 2374.09L1313.06 2267.45ZM1382.2 2225.09L1287.07 2169.87C1290.3 2164.3 1286.32 2168.65 1284.66 2181.96C1284.02 2187.06 1281.35 2210.14 1294.97 2236.8C1302.72 2251.96 1315.61 2267.72 1334.78 2279.05C1353.67 2290.21 1372.62 2293.5 1387.34 2293.5V2183.5V2073.5C1404.72 2073.5 1425.93 2077.38 1446.68 2089.63C1467.71 2102.06 1482.06 2119.44 1490.88 2136.69C1506.64 2167.53 1504.53 2196.67 1502.96 2209.27C1499.42 2237.59 1487.54 2262.73 1477.34 2280.31L1382.2 2225.09ZM1387.34 2183.5V2293.5C1389.85 2293.5 1391.68 2293.41 1392.12 2293.38C1392.49 2293.37 1392.76 2293.35 1392.91 2293.34C1393.07 2293.33 1393.16 2293.32 1393.18 2293.32C1393.19 2293.32 1393.05 2293.33 1392.71 2293.36C1392.37 2293.39 1391.92 2293.43 1391.35 2293.48C1388.91 2293.72 1385.38 2294.08 1380.73 2294.58C1371.31 2295.6 1359.79 2296.91 1346.85 2298.33L1334.79 2189L1322.73 2079.66C1334.68 2078.34 1347.46 2076.9 1357.1 2075.86C1361.98 2075.33 1366.67 2074.84 1370.58 2074.47C1372.51 2074.28 1374.66 2074.09 1376.76 2073.93C1377.93 2073.85 1382.35 2073.5 1387.34 2073.5V2183.5ZM1334.79 2189L1348.43 2298.15C1234.39 2312.4 1151.4 2315.08 917.939 2315.08V2205.08V2095.08C1150.72 2095.08 1221.82 2092.26 1321.14 2079.85L1334.79 2189ZM917.939 2205.08L917.757 2315.08C681.837 2314.69 562.176 2309.89 476.355 2294.03L496.348 2185.86L516.342 2077.69C579.085 2089.29 678.319 2094.68 918.12 2095.08L917.939 2205.08ZM496.348 2185.86L475.836 2293.93L448.968 2288.83L469.48 2180.76L489.993 2072.69L516.861 2077.79L496.348 2185.86ZM469.48 2180.76H579.48V2190.96H469.48H359.48V2180.76H469.48Z" fill="#F0F4F9" mask="url(#path-3-inside-1_2043_3)"/>
</g>
<defs>
<filter id="filter0_d_2043_3" x="0" y="0" width="1690.44" height="2300.4" filterUnits="userSpaceOnUse" color-interpolation-filters="sRGB">
<feFlood flood-opacity="0" result="BackgroundImageFix"/>
<feColorMatrix in="SourceAlpha" type="matrix" values="0 0 0 0 0 0 0 0 0 0 0 0 0 0 0 0 0 0 127 0" result="hardAlpha"/>
<feOffset dy="4"/>
<feGaussianBlur stdDeviation="2"/>
<feComposite in2="hardAlpha" operator="out"/>
<feColorMatrix type="matrix" values="0 0 0 0 0 0 0 0 0 0 0 0 0 0 0 0 0 0 0.25 0"/>
<feBlend mode="normal" in2="BackgroundImageFix" result="effect1_dropShadow_2043_3"/>
<feBlend mode="normal" in="SourceGraphic" in2="effect1_dropShadow_2043_3" result="shape"/>
</filter>
</defs>
</svg>
