<svg width="4036" height="5497" viewBox="0 0 4036 5497" fill="none" xmlns="http://www.w3.org/2000/svg">
<path d="M1442 4130.04C1732.22 4140.33 2993.18 4133.72 3200.84 4120.72C3282.65 4115.47 3322.03 4112.57 3345.72 4108.5C3356.52 4106.64 3361.83 4104.87 3365.27 4103.39C3368.9 4101.84 3372.73 4099.67 3380.8 4094.25L3380.94 4094.16L3381.08 4094.06C3393.72 4085.7 3415.82 4061.11 3432.4 4031.53C3498.06 3912.72 3616.72 3582.28 3727.51 3197.75L3727.52 3197.74L3727.52 3197.72C3917.77 2538.51 3976.99 2185.17 3976.99 1719.71C3976.99 1159.27 3880.89 852.43 3642.65 595.416C3407.3 343.841 3093.97 182.375 2664.5 99.2383L2659.46 98.2666C2478.02 63.5195 2084.13 44.1171 1908.98 61.415L1908.93 61.4199L1908.89 61.4238L1902.92 62.0137C1397.62 112.62 999.719 346.997 828.821 675.916L826.813 679.806C759.801 811.144 704.666 1022.36 693.714 1199.06C692.104 1226.4 689.494 1256.52 688.132 1277.17C686.597 1300.44 686.166 1317.41 687.329 1329.94C687.507 1331.86 687.712 1333.51 687.921 1334.92C916.075 1338.2 1157.08 1429.34 1250.93 1706.78L1250.96 1706.88L1251 1706.99C1309.62 1882.58 1329.2 2113.89 1301.48 2301.57L1301.47 2301.67L1301.45 2301.77L1300.55 2307.68C1291.22 2368.49 1281.31 2420.81 1271.38 2461C1266.27 2481.66 1260.9 2500.13 1255.25 2515.31C1250.45 2528.22 1242.8 2546.42 1230.11 2559.72L1228.77 2561.12L1227.33 2562.43C1222.07 2567.22 1195.67 2588.78 1162.17 2572.31C1149.06 2565.86 1141.71 2556.15 1138.12 2550.4C1134.37 2544.39 1132.21 2538.68 1130.96 2534.82C1126.63 2521.53 1124.87 2503.75 1123.63 2486.18C1120.9 2447.52 1119.23 2379.87 1117.35 2269.11V2269.11C1112.64 1991.09 1102.22 1904.89 1065.11 1788.19C1000.07 1588.53 873.35 1473.52 710.03 1448.2C700.003 1446.68 689.915 1445.56 679.783 1444.83C676.381 1444.77 672.979 1444.57 669.592 1444.23C468.912 1434.93 252.924 1576.66 140.05 1819.87L140.027 1819.92L140.004 1819.97C1.41932 2117.06 38.9255 2550.27 266.253 3062.95L266.255 3062.96C392.194 3347.04 557.653 3588.33 774.058 3803.18C846.996 3875.59 935.059 3948.86 1015.91 4006.83C1056.3 4035.79 1094.33 4060.53 1127.28 4079.29C1161.06 4098.52 1186.55 4109.75 1202.57 4114.01L1202.68 4114.04L1202.62 4114.02C1202.45 4113.97 1204.02 4114.34 1208.35 4114.97C1212.73 4115.61 1218.57 4116.33 1225.86 4117.11C1240.42 4118.66 1259.54 4120.31 1282 4121.93C1326.87 4125.16 1383.84 4128.18 1441.81 4130.03L1441.91 4130.04L1442 4130.04Z" fill="#F0F4F9"/>
<path d="M2092.3 5124.58C2524.63 5128.33 2985.84 5116.53 3230.89 5087.39L3230.92 5087.39L3230.95 5087.39C3285.5 5080.96 3317.31 5073.04 3336.97 5063.69C3353.43 5055.87 3360.94 5047.37 3366.86 5034.18C3379.31 5005.81 3391.82 4953.73 3402.2 4885.21C3412.37 4818.01 3419.85 4739.57 3423.91 4661.7C3427.98 4583.78 3428.58 4507.44 3425.25 4444.4C3421.75 4378.36 3414.25 4335.42 3406.57 4318.14L3406.42 4317.79L3406.27 4317.44C3402.43 4308.45 3399.34 4302.92 3397.2 4299.68C3395.37 4299.64 3393.23 4299.61 3390.77 4299.6C3379.83 4299.56 3364.74 4299.91 3346.39 4300.65C3309.83 4302.14 3262.15 4305.14 3212.68 4309.31L3212.57 4309.32L3212.46 4309.33C2734.82 4347.67 2267.02 4360.08 1854.42 4344.58L1844.69 4344.21C1553.91 4333 1181.89 4310.47 1104.57 4299.63C1097.65 4298.73 1093.36 4298.3 1090.49 4298.14C1088.83 4299.58 1086.44 4301.79 1082.92 4305.28C1076.13 4312.38 1073.13 4317.05 1070.84 4322.31C1068.08 4328.67 1065.2 4338.64 1062.2 4358.05C1057.66 4392.79 1055.64 4484.84 1056.71 4585.21C1057.76 4683.69 1061.68 4782.83 1067.71 4833.24L1068 4835.61C1080.81 4935.91 1093.15 4994.35 1108.34 5029.38C1115.5 5045.9 1122.24 5054.57 1127.8 5059.61C1133.02 5064.35 1139.66 5068.13 1150.47 5071L1150.49 5071L1150.51 5071.01C1205.09 5085.5 1329.97 5098.3 1500.69 5107.69C1669.14 5116.97 1876.6 5122.7 2092.3 5124.58Z" fill="#F0F4F9"/>
<path d="M1915.98 5427.96C2149.93 5436.36 2409.77 5434.26 2633.19 5424.34C2858.63 5414.33 3041.32 5396.56 3124.35 5375.19L3124.45 5375.16L3124.56 5375.13C3171.57 5363.24 3198.55 5353.09 3216.68 5342.04C3232.78 5332.23 3243.99 5320.43 3255.88 5299.68L3255.96 5299.54L3256.03 5299.41C3258.36 5295.4 3260.46 5291.57 3262.34 5287.94C3242.69 5290.11 3219.97 5292.66 3196.46 5295.25C2937.6 5327.6 2750.06 5334.13 2192.09 5334.13H2192C1640.49 5333.22 1372.6 5321.84 1189.45 5290.18C1197.92 5306.98 1207.18 5320.52 1213.66 5327.18L1213.85 5327.37L1214.03 5327.56C1234.45 5348.96 1280.32 5371.94 1394.48 5389.98C1506.05 5407.6 1671 5419.04 1915.98 5427.96L1915.98 5427.96Z" fill="#F0F4F9"/>
</svg>
