<svg width="33" height="120" viewBox="0 0 33 120" fill="none" xmlns="http://www.w3.org/2000/svg">
<path d="M4.73552 119.809H-0.00047636V112.257H3.45552C6.78352 112.257 9.21552 111.361 10.7515 109.569C12.3729 107.777 13.1835 105.259 13.1835 102.017V70.4006C13.1835 67.8406 13.4822 65.8352 14.0795 64.3846C14.6769 62.9339 15.6155 61.8246 16.8955 61.0566C18.1755 60.2032 19.7542 59.6059 21.6315 59.2646V60.5446C19.7542 60.1179 18.1755 59.5206 16.8955 58.7526C15.6155 57.9846 14.6769 56.8752 14.0795 55.4246C13.4822 53.9739 13.1835 51.9686 13.1835 49.4086V17.7926C13.1835 14.5499 12.3729 12.0326 10.7515 10.2406C9.21552 8.44856 6.78352 7.55256 3.45552 7.55256H-0.00047636V0.000556946H4.73552C10.5382 0.000556946 14.8902 1.40856 17.7915 4.22456C20.7782 7.04056 22.2715 11.3072 22.2715 17.0246V49.5366C22.2715 51.8406 22.7835 53.5046 23.8075 54.5286C24.8315 55.5526 26.2395 56.0646 28.0315 56.0646H32.3835V63.7446H28.0315C26.2395 63.7446 24.8315 64.2566 23.8075 65.2806C22.7835 66.3046 22.2715 67.9686 22.2715 70.2726V102.785C22.2715 108.417 20.7782 112.641 17.7915 115.457C14.8902 118.358 10.5382 119.809 4.73552 119.809Z" fill="#991B1B"/>
</svg>
